<svg width="23" height="23" viewBox="0 0 23 23" fill="none" xmlns="http://www.w3.org/2000/svg">
<path d="M11.5 13.11L14.835 16.445C15.0458 16.6558 15.3142 16.7612 15.64 16.7612C15.9658 16.7612 16.2342 16.6558 16.445 16.445C16.6558 16.2342 16.7612 15.9658 16.7612 15.64C16.7612 15.3142 16.6558 15.0458 16.445 14.835L13.11 11.5L16.445 8.165C16.6558 7.95416 16.7612 7.68583 16.7612 7.36C16.7612 7.03416 16.6558 6.76583 16.445 6.555C16.2342 6.34416 15.9658 6.23875 15.64 6.23875C15.3142 6.23875 15.0458 6.34416 14.835 6.555L11.5 9.89L8.165 6.555C7.95416 6.34416 7.68583 6.23875 7.36 6.23875C7.03416 6.23875 6.76583 6.34416 6.555 6.555C6.34416 6.76583 6.23875 7.03416 6.23875 7.36C6.23875 7.68583 6.34416 7.95416 6.555 8.165L9.89 11.5L6.555 14.835C6.34416 15.0458 6.23875 15.3142 6.23875 15.64C6.23875 15.9658 6.34416 16.2342 6.555 16.445C6.76583 16.6558 7.03416 16.7612 7.36 16.7612C7.68583 16.7612 7.95416 16.6558 8.165 16.445L11.5 13.11ZM11.5 23C9.90916 23 8.41416 22.6979 7.015 22.0938C5.61583 21.4897 4.39875 20.6705 3.36375 19.6362C2.32875 18.602 1.50957 17.3849 0.906201 15.985C0.302835 14.5851 0.000768122 13.0901 1.45569e-06 11.5C-0.00076521 9.90993 0.301301 8.41493 0.906201 7.015C1.5111 5.61507 2.33028 4.39798 3.36375 3.36375C4.39722 2.32952 5.6143 1.51033 7.015 0.9062C8.4157 0.302067 9.91069 0 11.5 0C13.0893 0 14.5843 0.302067 15.985 0.9062C17.3857 1.51033 18.6028 2.32952 19.6362 3.36375C20.6697 4.39798 21.4893 5.61507 22.0949 7.015C22.7006 8.41493 23.0023 9.90993 23 11.5C22.9977 13.0901 22.6956 14.5851 22.0938 15.985C21.492 17.3849 20.6728 18.602 19.6362 19.6362C18.5997 20.6705 17.3826 21.49 15.985 22.0949C14.5874 22.6998 13.0924 23.0015 11.5 23ZM11.5 20.7C14.0683 20.7 16.2437 19.8087 18.0262 18.0262C19.8087 16.2437 20.7 14.0683 20.7 11.5C20.7 8.93166 19.8087 6.75625 18.0262 4.97375C16.2437 3.19125 14.0683 2.3 11.5 2.3C8.93166 2.3 6.75625 3.19125 4.97375 4.97375C3.19125 6.75625 2.3 8.93166 2.3 11.5C2.3 14.0683 3.19125 16.2437 4.97375 18.0262C6.75625 19.8087 8.93166 20.7 11.5 20.7Z" />
</svg>
