<?xml version="1.0" standalone="no"?>
<!DOCTYPE svg PUBLIC "-//W3C//DTD SVG 20010904//EN"
 "http://www.w3.org/TR/2001/REC-SVG-20010904/DTD/svg10.dtd">
<svg version="1.0" xmlns="http://www.w3.org/2000/svg"
 viewBox="0 0 2600.000000 2600.000000"
 preserveAspectRatio="xMidYMid meet">
<metadata>
Created by potrace 1.15, written by Peter Selinger 2001-2017
</metadata>
<g transform="translate(0.000000,2600.000000) scale(0.100000,-0.100000)" stroke="none">
<path d="M4920 13525 l0 -4225 1015 0 1015 0 0 1185 0 1185 5955 0 5955 0 2
-1182 3 -1183 1015 0 1015 0 0 2195 0 2195 -6972 3 -6973 2 0 2025 0 2025
-1015 0 -1015 0 0 -4225z"/>
<path d="M8620 17076 c-425 -76 -771 -315 -983 -681 -258 -445 -239 -1015 49
-1447 203 -306 512 -513 884 -594 119 -26 409 -27 530 -1 563 120 971 527
1092 1090 30 143 31 399 0 537 -121 556 -523 961 -1077 1085 -97 22 -396 28
-495 11z"/>
<path d="M12265 16934 c-404 -71 -778 -334 -1102 -774 -218 -297 -403 -682
-506 -1055 -63 -226 -107 -496 -107 -657 l0 -68 5091 0 5091 0 -6 108 c-40
622 -301 1291 -693 1777 -91 113 -285 306 -383 380 -205 157 -445 262 -675
295 -46 6 -1204 9 -3350 9 -2766 -1 -3293 -3 -3360 -15z"/>
</g>
</svg>
